<svg xmlns="http://www.w3.org/2000/svg" xmlns:xlink="http://www.w3.org/1999/xlink" width="500" zoomAndPan="magnify" viewBox="0 0 375 374.999991" height="500" preserveAspectRatio="xMidYMid meet" version="1.0"><defs><g/></defs><path fill="#d4af37" d="M 188.523438 37.703125 C 188.292969 37.660156 188.046875 37.640625 187.808594 37.640625 L 186.847656 37.660156 L 185.878906 37.640625 C 185.644531 37.640625 185.40625 37.664062 185.179688 37.703125 C 118.421875 39.105469 64.222656 94.386719 64.222656 161.226562 C 64.222656 249.335938 164.328125 332.324219 184.394531 348.066406 C 185.113281 348.628906 185.980469 348.910156 186.847656 348.910156 C 187.710938 348.910156 188.578125 348.628906 189.296875 348.066406 C 209.363281 332.324219 309.46875 249.332031 309.46875 161.226562 C 309.46875 94.382812 255.269531 39.109375 188.523438 37.699219 Z M 186.84375 339.859375 C 162.726562 320.542969 72.160156 242.554688 72.160156 161.207031 C 72.160156 98.460938 123.203125 46.605469 185.941406 45.609375 C 186.109375 45.605469 186.273438 45.59375 186.433594 45.570312 L 186.847656 45.578125 L 187.25 45.570312 C 187.410156 45.59375 187.574219 45.605469 187.746094 45.609375 C 250.488281 46.605469 301.527344 98.460938 301.527344 161.207031 C 301.527344 242.5625 210.957031 320.542969 186.84375 339.859375 Z M 186.84375 339.859375 " fill-opacity="1" fill-rule="nonzero"/><path fill="#d4af37" d="M 239.832031 94.597656 C 234.171875 94.597656 228.796875 96.855469 224.605469 101.046875 L 203.503906 123.609375 L 131.292969 101.988281 L 117.402344 115.875 C 114.535156 118.765625 114.542969 123.453125 117.417969 126.324219 L 117.816406 126.722656 L 172.335938 156.730469 L 148.042969 181.445312 L 125.273438 176.796875 L 116.15625 185.917969 C 114.917969 187.15625 114.238281 188.800781 114.238281 190.550781 C 114.238281 192.300781 114.921875 193.945312 116.160156 195.179688 L 159.183594 238.207031 C 160.421875 239.445312 162.066406 240.125 163.816406 240.125 C 165.570312 240.125 167.21875 239.4375 168.449219 238.203125 L 177.570312 229.089844 L 172.804688 205.882812 L 197.410156 181.621094 L 227.640625 236.550781 L 228.042969 236.949219 C 230.832031 239.734375 235.695312 239.734375 238.492188 236.945312 L 252.367188 223.066406 L 230.613281 150.378906 L 253.089844 129.347656 C 261.28125 121.15625 261.582031 108.125 253.757812 100.292969 C 250.082031 96.621094 245.140625 94.597656 239.832031 94.597656 Z M 247.574219 123.644531 L 221.601562 147.949219 L 243.410156 220.808594 L 233.492188 230.726562 L 199.308594 168.609375 L 164.167969 203.261719 L 168.933594 226.496094 L 163.816406 231.613281 L 122.753906 190.550781 L 127.875 185.433594 L 150.683594 190.089844 L 185.34375 154.828125 L 123.640625 120.871094 L 133.5625 110.953125 L 205.941406 132.625 L 230.3125 106.566406 C 232.914062 103.964844 236.292969 102.535156 239.835938 102.535156 C 243.019531 102.535156 245.96875 103.730469 248.140625 105.902344 C 252.871094 110.640625 252.574219 118.636719 247.574219 123.644531 Z M 247.574219 123.644531 " fill-opacity="1" fill-rule="nonzero"/><g fill="#ffffff" fill-opacity="1"><g transform="translate(185.393546, 193.124987)"><g><path d="M 2.109375 0.078125 C 1.804688 0.078125 1.566406 -0.00390625 1.390625 -0.171875 C 1.222656 -0.335938 1.140625 -0.5625 1.140625 -0.84375 C 1.140625 -1.113281 1.222656 -1.332031 1.390625 -1.5 C 1.566406 -1.675781 1.804688 -1.765625 2.109375 -1.765625 C 2.410156 -1.765625 2.644531 -1.679688 2.8125 -1.515625 C 2.988281 -1.347656 3.078125 -1.128906 3.078125 -0.859375 C 3.078125 -0.578125 2.988281 -0.347656 2.8125 -0.171875 C 2.632812 -0.00390625 2.398438 0.078125 2.109375 0.078125 Z M 2.109375 0.078125 "/></g></g></g></svg>