<svg xmlns="http://www.w3.org/2000/svg" xmlns:xlink="http://www.w3.org/1999/xlink" width="500" zoomAndPan="magnify" viewBox="0 0 375 374.999991" height="500" preserveAspectRatio="xMidYMid meet" version="1.0"><defs><g/></defs><path fill="#c97b8e" d="M 172.480469 127.46875 C 159.144531 121.050781 143.8125 117.519531 127.585938 117.65625 C 126.449219 116.089844 143.386719 87.773438 145.203125 83.160156 C 146.429688 80.035156 149.769531 73.179688 147.636719 70.597656 C 146.507812 69.230469 118.460938 55.292969 115.917969 54.96875 C 107.59375 53.921875 96.246094 59.09375 88.097656 61.914062 C 81.574219 64.167969 62.671875 70.835938 58.050781 74.644531 C 56.449219 75.964844 40.472656 106.738281 40.679688 108.628906 C 41.410156 115.242188 81.074219 128.125 87.257812 132.195312 C 58.46875 154.523438 37.875 185.890625 47.902344 223.546875 C 68.234375 299.890625 166.050781 309.90625 205.121094 247.488281 C 208.613281 249.371094 212.34375 251.027344 216.355469 252.414062 C 297.6875 280.515625 365.171875 188.390625 313.808594 117.671875 C 275.941406 65.535156 206.386719 78.492188 172.484375 127.460938 Z M 145.441406 122.066406 C 201.1875 130.578125 229.707031 182.589844 211.378906 230.28125 C 208.824219 228.394531 206.347656 226.3125 203.972656 224.066406 C 206.109375 217.234375 207.324219 209.855469 207.414062 202.019531 C 208.003906 150.804688 166.210938 130.261719 120.898438 131.253906 C 122.25 117.648438 135.011719 120.480469 145.441406 122.074219 Z M 186.164062 135.566406 C 202.597656 112.410156 238.226562 90.457031 270.421875 101.785156 C 350.46875 129.949219 316.421875 255.804688 234.304688 240.847656 C 227.101562 239.53125 219.894531 236.230469 213.15625 231.558594 C 213.480469 230.746094 213.796875 229.929688 214.101562 229.09375 C 228.300781 190.160156 214.011719 155.535156 186.164062 135.574219 Z M 202.351562 222.496094 C 184.894531 205.148438 173.410156 179.144531 178.867188 158.757812 C 178.882812 158.695312 181.121094 153.210938 181.929688 151.230469 C 192.964844 159.632812 199.621094 170.910156 203.039062 184.226562 C 206.652344 198.292969 206.023438 211.179688 202.359375 222.503906 Z M 111.925781 138.199219 C 112.90625 137.984375 114.625 134.703125 120.414062 134.761719 C 140.082031 134.964844 155.648438 137.914062 167.804688 143.113281 C 164.488281 153.796875 162.679688 160.410156 162.582031 168.726562 C 162.273438 196.449219 173.277344 223.027344 193.632812 239.800781 C 164.945312 280.371094 92.089844 288.089844 67.523438 231.964844 C 54.5 202.210938 73.832031 150.722656 104.625 140.128906 C 109.425781 138.476562 111.292969 138.335938 111.917969 138.199219 Z M 111.382812 135.324219 L 76.804688 103.902344 C 76.847656 102.332031 102.566406 93.113281 105.847656 91.9375 C 107.609375 91.304688 116.84375 87.839844 117.625 88.355469 L 111.382812 135.328125 Z M 114.640625 135.046875 C 114.082031 135.074219 113.859375 132.011719 113.867188 131.539062 C 113.941406 128.136719 119.5 91.035156 120.390625 89.082031 C 121.71875 86.167969 138.546875 78.027344 141.90625 77.15625 C 142.964844 76.882812 143.304688 77.140625 144.167969 77.644531 Z M 119.964844 59.464844 L 142.628906 71.878906 L 142.390625 73.640625 L 119.851562 82.558594 Z M 117.703125 58.976562 C 118.304688 59.871094 115.507812 77.480469 117.078125 80.566406 C 115.976562 81.710938 91.089844 67.910156 89.871094 64.664062 C 94.59375 63.511719 114.617188 54.378906 117.699219 58.976562 Z M 116.089844 83.835938 L 75.773438 99.640625 L 86.878906 68.199219 C 89.382812 66.800781 112.5 81.351562 116.089844 83.835938 Z M 69.582031 71.5625 C 71.367188 70.769531 84.5625 65.847656 85.371094 67.453125 L 73.246094 97.140625 L 58.332031 79.15625 C 58.265625 76.839844 67.5 72.484375 69.582031 71.558594 Z M 56.085938 81.179688 L 71.515625 100.667969 L 47.207031 106.839844 C 44.375 105.914062 55.542969 84.246094 56.085938 81.1875 Z M 48.226562 109.84375 L 73.789062 103.664062 L 107.617188 135.339844 Z M 198.433594 253.273438 C 132.59375 339.59375 -10.597656 239.527344 73.550781 147.34375 C 75.414062 145.304688 88.34375 133.78125 89.785156 133.441406 C 91.058594 133.144531 98.894531 137.058594 100.851562 137.644531 C 61.585938 166.277344 40.277344 218.535156 81.734375 256.484375 C 118.390625 290.035156 172.367188 278.175781 195.824219 241.539062 C 198.140625 243.300781 200.597656 244.933594 203.199219 246.4375 C 201.734375 248.742188 200.152344 251.027344 198.433594 253.277344 Z M 206.285156 245.566406 C 206.125 245.449219 204.675781 244.71875 204.417969 244.457031 C 201.929688 242.929688 199.511719 241.222656 197.179688 239.332031 C 196.707031 238.917969 195.984375 238.195312 195.132812 237.609375 C 182.789062 226.859375 172.890625 210.816406 167.488281 188.566406 C 166.839844 185.878906 164.828125 172.980469 164.828125 167.183594 C 164.828125 166.855469 168.347656 145.304688 169.171875 144.722656 C 170.332031 143.90625 178.042969 148.519531 179.320312 149.796875 C 180.769531 151.246094 176.566406 157.710938 175.695312 162.839844 C 172.496094 181.625 182.644531 208.003906 201.546875 225.683594 C 202.050781 226.242188 202.957031 227.09375 202.992188 227.003906 C 205.324219 229.082031 210.890625 233.273438 211.207031 233.390625 C 225.316406 242.871094 242.863281 247.519531 262.578125 242.761719 C 325.507812 227.582031 340.980469 144.9375 287.628906 108.097656 C 248.878906 81.339844 209.324219 101.777344 184.523438 134.414062 C 181.5 132.34375 178.316406 130.445312 175.003906 128.726562 C 177.027344 124.519531 183.210938 118.605469 186.691406 114.824219 C 231.1875 66.515625 304.003906 81.792969 325.121094 144.191406 C 351.710938 222.753906 262.847656 277.976562 206.292969 245.574219 Z M 206.285156 245.566406 " fill-opacity="1" fill-rule="nonzero"/><g fill="#ffffff" fill-opacity="1"><g transform="translate(185.393546, 193.124987)"><g><path d="M 2.109375 0.078125 C 1.804688 0.078125 1.566406 -0.00390625 1.390625 -0.171875 C 1.222656 -0.335938 1.140625 -0.5625 1.140625 -0.84375 C 1.140625 -1.113281 1.222656 -1.332031 1.390625 -1.5 C 1.566406 -1.675781 1.804688 -1.765625 2.109375 -1.765625 C 2.410156 -1.765625 2.644531 -1.679688 2.8125 -1.515625 C 2.988281 -1.347656 3.078125 -1.128906 3.078125 -0.859375 C 3.078125 -0.578125 2.988281 -0.347656 2.8125 -0.171875 C 2.632812 -0.00390625 2.398438 0.078125 2.109375 0.078125 Z M 2.109375 0.078125 "/></g></g></g></svg>